<?xml version="1.0" standalone="no"?>
<!DOCTYPE svg PUBLIC "-//W3C//DTD SVG 20010904//EN"
 "http://www.w3.org/TR/2001/REC-SVG-20010904/DTD/svg10.dtd">
<svg version="1.0" xmlns="http://www.w3.org/2000/svg"
 width="300.000000pt" height="300.000000pt" viewBox="0 0 300.000000 300.000000"
 preserveAspectRatio="xMidYMid meet">
<metadata>
Created by potrace 1.10, written by Peter Selinger 2001-2011
</metadata>
<g transform="translate(0.000000,300.000000) scale(0.100000,-0.100000)"
fill="#000000" stroke="none">
<path d="M183 2956 c-91 -82 -152 -244 -159 -421 -2 -49 -6 -129 -10 -177 l-7
-88 35 0 c91 0 127 29 129 104 1 17 4 42 8 56 5 14 6 -117 3 -290 -5 -316 3
-514 19 -475 5 13 8 -1 9 -45 1 -45 8 -80 25 -115 31 -66 32 -38 4 115 -17 95
-22 179 -29 490 -8 357 -4 461 19 523 8 19 19 25 57 31 26 3 51 3 55 -1 5 -5
4 -51 -1 -103 -6 -52 -12 -198 -16 -325 -7 -274 -4 -287 81 -316 62 -21 145
-24 189 -5 35 14 86 72 86 97 0 21 -47 68 -75 75 -32 8 -58 -2 -28 -11 12 -4
29 -17 37 -30 31 -48 -32 -85 -146 -85 -46 0 -62 5 -85 24 -28 24 -28 24 -32
173 -2 81 3 228 10 326 l13 179 253 -4 c166 -2 252 0 250 7 -8 23 -297 30
-368 9 -14 -4 -15 10 -11 124 3 85 1 136 -7 148 -8 15 -10 -12 -9 -113 1 -73
-2 -136 -6 -140 -4 -4 -63 -7 -132 -8 -96 0 -123 3 -119 13 6 15 22 119 29
187 5 45 4 48 -9 31 -7 -10 -17 -44 -20 -75 -11 -98 -27 -165 -43 -184 -11
-12 -12 -21 -5 -28 13 -13 -7 -89 -24 -89 -7 0 -16 12 -19 28 -8 30 -22 52
-35 52 -12 0 -11 -37 1 -45 18 -11 10 -25 -15 -25 -18 0 -25 5 -25 19 0 41 53
229 78 276 36 67 112 142 148 148 23 3 20 4 -12 6 -36 1 -48 -5 -91 -43z m-11
-452 c-2 -10 -16 -29 -30 -41 -24 -18 -27 -28 -27 -79 0 -51 -3 -59 -20 -62
-11 -2 -26 -9 -34 -16 -12 -9 -13 -3 -7 39 5 28 14 61 21 75 7 14 18 39 25 56
17 47 79 71 72 28z"/>
<path d="M2359 2977 c-15 -12 -35 -40 -45 -61 -18 -40 -66 -93 -123 -135 -40
-30 -40 -64 2 -69 34 -4 34 -3 0 -229 -34 -233 -39 -507 -9 -563 47 -87 96
-190 96 -202 1 -28 107 -222 131 -240 21 -16 29 -17 51 -7 15 6 39 9 53 5 27
-7 27 -7 21 -74 -10 -96 -12 -101 -54 -107 -20 -4 -43 -8 -50 -11 -25 -8 -7
-39 36 -62 47 -26 51 -40 23 -80 -10 -15 -39 -61 -65 -102 -68 -112 -88 -130
-135 -130 -45 0 -40 -14 -62 170 -30 256 -109 603 -160 702 -33 65 -78 247
-99 403 -10 77 -16 143 -14 147 3 5 15 8 28 8 63 0 62 61 -5 157 -51 75 -68
126 -84 265 -10 81 -32 112 -101 137 -75 29 -180 50 -277 58 -142 11 -212 -29
-342 -196 -93 -119 -93 -133 -2 -90 75 35 87 36 87 4 0 -37 -40 -136 -65 -159
-12 -12 -38 -36 -58 -54 -39 -36 -49 -72 -19 -72 34 0 47 -16 35 -43 -6 -14
-28 -105 -48 -203 -50 -242 -76 -329 -140 -464 -29 -63 -70 -153 -90 -200 -20
-47 -41 -89 -46 -94 -20 -21 -8 54 17 109 15 31 35 103 45 159 10 55 34 178
53 271 32 151 36 187 36 320 0 319 -62 576 -162 672 -66 63 -103 73 -293 72
-104 0 -183 -5 -202 -12 -27 -10 2 -11 152 -9 151 3 193 1 234 -13 92 -30 147
-108 180 -250 73 -322 83 -440 57 -635 -29 -211 -90 -471 -135 -577 -32 -73
-39 -113 -21 -113 6 0 10 5 10 12 0 6 3 8 7 5 7 -7 -27 -117 -37 -117 -3 0 -6
34 -7 76 -1 76 -18 114 -48 114 -13 0 -64 -60 -85 -100 -7 -14 -38 -55 -69
-91 -62 -75 -111 -163 -111 -202 0 -38 10 -57 31 -57 15 0 19 7 19 31 0 42 49
132 116 213 51 61 74 79 74 58 0 -5 16 -28 37 -51 l36 -43 -17 -55 c-10 -31
-20 -88 -22 -127 -4 -75 -15 -127 -58 -265 -33 -106 -33 -132 0 -170 35 -41
48 -40 40 5 -4 19 -2 59 4 87 30 146 53 283 63 375 7 56 17 103 22 104 17 2
75 -152 87 -230 15 -103 0 -168 -49 -211 -21 -19 -32 -36 -27 -41 5 -5 47 -16
94 -25 47 -9 103 -20 125 -25 22 -5 83 -12 137 -16 l96 -7 6 -51 c12 -105 28
-417 22 -423 -3 -4 -51 -12 -107 -19 -68 -9 -109 -20 -128 -33 -27 -19 -81
-83 -81 -95 0 -3 14 -6 30 -6 17 0 30 4 30 9 0 24 64 69 111 78 60 12 71 2 27
-26 -33 -20 -66 -61 -50 -61 5 0 32 11 60 25 63 30 144 49 177 41 35 -9 42 25
14 63 -20 27 -23 50 -35 258 -7 125 -12 228 -11 229 1 1 127 4 280 6 l277 4 0
-32 c0 -57 -38 -257 -66 -344 -21 -68 -34 -92 -65 -121 -22 -20 -39 -39 -39
-42 0 -4 58 -7 129 -7 72 0 132 -3 134 -7 3 -5 67 -8 143 -8 125 0 139 2 142
18 3 13 -11 24 -55 44 -54 26 -67 27 -198 28 -77 0 -154 -3 -172 -7 -25 -6
-31 -4 -27 6 3 8 14 16 25 19 11 3 28 24 38 49 26 58 71 257 78 345 3 40 11
77 17 81 6 5 60 19 120 31 121 25 128 23 119 -36 -5 -29 -3 -33 16 -33 38 0
61 34 61 93 0 29 5 58 12 65 17 17 45 15 52 -4 17 -44 96 27 96 86 0 15 12 48
26 74 14 25 39 83 54 127 16 45 31 84 34 86 11 12 24 -10 35 -64 13 -57 53
-133 71 -133 21 0 19 24 -11 122 -45 148 -45 151 16 161 79 14 215 57 277 88
51 26 58 33 58 59 0 17 -4 30 -8 30 -4 0 -50 -17 -102 -39 -52 -21 -135 -51
-184 -67 l-89 -28 -18 23 c-21 25 -25 93 -10 134 5 13 42 57 81 98 87 90 162
180 225 274 26 39 57 81 70 95 27 30 42 70 25 70 -6 0 -23 -6 -38 -14 -15 -7
-48 -16 -75 -19 l-47 -7 7 58 c14 118 3 503 -23 761 -13 133 -24 191 -24 128
0 -14 -3 -33 -6 -42 -5 -13 -10 -10 -25 14 -16 27 -24 31 -64 31 -27 0 -45 5
-45 11 0 17 -211 1 -282 -21 -56 -17 -57 -17 -47 1 5 11 14 19 20 19 5 0 16
15 24 34 8 19 19 37 25 41 5 3 15 15 20 26 15 27 -17 25 -51 -4z m-709 -71
c83 -18 153 -49 185 -80 21 -21 25 -35 25 -84 0 -32 -2 -61 -6 -64 -3 -3 -22
2 -42 12 -127 61 -366 101 -472 80 -83 -17 -85 -17 -82 5 6 37 57 98 101 122
37 19 59 23 135 23 50 0 120 -7 156 -14z m1084 -62 c22 -8 43 -82 61 -208 11
-78 15 -195 15 -403 l0 -294 -25 -23 c-28 -26 -32 -38 -10 -30 8 4 22 4 30 1
34 -14 -45 -165 -151 -290 -58 -68 -94 -91 -151 -100 -41 -7 -42 -7 -70 41
-16 26 -55 106 -88 177 -33 72 -71 146 -86 165 -49 65 -55 88 -58 220 -2 142
7 220 49 405 54 235 71 285 108 328 13 15 36 17 188 17 95 0 179 -3 188 -6z
m-461 -107 c-11 -23 -23 -49 -26 -57 -3 -8 -6 6 -6 32 -1 37 3 50 21 62 31 22
34 12 11 -37z m-1029 16 c3 -10 9 -23 12 -30 3 -7 -2 -10 -14 -6 -11 2 -34 -3
-51 -11 -39 -21 -39 -16 0 29 35 40 44 43 53 18z m379 -29 c74 -19 109 -36
163 -79 48 -40 100 -145 114 -231 5 -33 16 -111 26 -174 13 -93 59 -337 81
-435 11 -49 -109 -139 -241 -181 -109 -35 -284 -43 -406 -20 -93 17 -223 75
-279 123 l-34 29 36 150 c20 82 52 226 71 319 34 163 55 235 95 314 10 20 24
68 31 106 8 39 18 76 23 83 14 18 243 16 320 -4z m198 -54 c12 0 69 -61 69
-73 0 -5 -21 9 -47 29 -65 52 -72 58 -50 50 10 -3 23 -6 28 -6z m84 -118 c19
-13 38 -83 26 -95 -7 -7 -12 -6 -16 4 -35 97 -36 111 -10 91z m-719 -124 c-15
-32 -22 -38 -24 -25 -3 14 32 67 43 67 2 0 -7 -19 -19 -42z m794 -27 c0 -16
-7 -34 -15 -41 -19 -15 -18 -16 -31 37 -8 31 -8 43 0 46 22 8 46 -14 46 -42z
m900 -510 c0 -5 -7 -14 -16 -22 -8 -7 -22 -26 -30 -42 -9 -16 -18 -26 -21 -24
-7 8 18 81 31 89 15 10 36 10 36 -1z m-72 -161 c-13 -24 -45 -66 -71 -94 l-49
-51 28 50 c59 107 95 158 105 148 6 -6 2 -25 -13 -53z m-730 -77 c59 -223 99
-433 112 -593 16 -200 31 -314 43 -328 7 -9 7 -16 -1 -24 -9 -9 -12 -8 -12 5
0 27 -23 30 -82 13 -195 -56 -235 -60 -583 -61 -181 0 -370 2 -420 4 -186 8
-314 46 -262 78 7 4 21 33 30 63 16 50 16 60 3 105 -9 27 -14 51 -12 52 2 2
17 -20 34 -50 17 -30 38 -57 48 -61 15 -6 15 -9 -8 -34 -33 -36 -61 -82 -49
-82 5 0 17 12 26 27 l18 27 11 -33 c6 -18 24 -40 39 -49 24 -15 29 -15 37 -2
15 23 12 66 -5 80 -13 10 -19 10 -34 -4 -18 -16 -19 -15 -18 36 1 45 -9 74
-66 198 -134 287 -123 255 -108 308 7 26 18 54 25 62 14 15 169 313 178 340 3
10 15 2 41 -26 43 -48 124 -93 222 -124 108 -35 322 -40 434 -11 119 31 206
78 266 144 28 30 53 55 56 56 4 1 20 -52 37 -116z m462 -398 c0 -30 -3 -30
-36 -8 -19 12 -22 18 -12 24 26 17 48 10 48 -16z m50 -15 c0 -15 -23 -60 -31
-60 -15 0 -17 29 -3 49 16 22 34 28 34 11z m-134 -276 c-25 -53 -46 -102 -46
-109 0 -26 -23 -28 -41 -4 -23 30 -24 40 -3 32 19 -7 53 31 54 60 0 22 69 132
77 123 3 -3 -15 -49 -41 -102z m-218 -114 c0 -32 -1 -33 -8 -10 -4 14 -8 41
-8 60 0 32 1 33 8 10 4 -14 8 -41 8 -60z m109 -9 c10 -29 10 -29 -14 -20 -13
5 -35 9 -49 9 -13 0 -24 6 -24 13 0 21 10 27 44 27 26 0 34 -6 43 -29z m-416
-220 c-6 -10 -10 -34 -9 -52 1 -42 -22 -148 -34 -155 -5 -3 -6 5 -3 18 20 89
25 118 25 161 0 35 4 47 15 47 12 0 13 -4 6 -19z m-21 -506 c34 -13 33 -13
-47 -14 -76 -1 -94 4 -76 22 11 11 86 6 123 -8z"/>
<path d="M2586 2689 c-14 -11 -26 -27 -26 -34 0 -9 10 -5 26 12 26 26 46 25
24 -2 -7 -9 -10 -18 -7 -22 4 -3 9 2 13 11 3 9 15 16 25 16 27 0 25 -45 -2
-64 -28 -19 -47 -11 -52 22 -4 26 -4 26 -6 -3 -2 -57 43 -74 78 -29 27 34 26
56 -1 81 -37 33 -44 34 -72 12z"/>
<path d="M2365 2680 c-18 -8 -17 -9 7 -9 41 -1 78 -19 78 -37 0 -11 -5 -14
-17 -9 -51 19 -69 17 -88 -11 -23 -35 -30 -91 -14 -110 16 -19 76 -9 107 19
27 25 45 86 36 122 -10 38 -62 55 -109 35z m64 -76 c3 -3 -1 -10 -7 -16 -18
-18 -14 -30 8 -23 11 3 20 3 20 -2 -1 -13 -78 -45 -91 -38 -13 8 -5 61 12 82
10 12 44 10 58 -3z"/>
<path d="M2453 2507 c-28 -42 -49 -86 -57 -119 -3 -14 -18 -40 -32 -58 -15
-17 -24 -33 -21 -36 9 -9 27 6 27 22 0 8 4 13 9 10 5 -3 9 -24 9 -45 0 -22 6
-49 11 -60 19 -35 13 -77 -14 -95 -13 -9 -27 -16 -30 -16 -3 0 -5 24 -5 54 0
37 -5 58 -16 67 -25 21 -35 -7 -32 -90 3 -64 7 -76 30 -96 51 -44 181 -37 198
10 5 13 2 30 -7 45 l-14 25 5 -27 c7 -30 -18 -63 -40 -54 -8 3 -36 8 -64 12
-56 7 -65 21 -21 30 17 4 32 12 35 20 3 8 20 14 40 14 29 0 34 3 29 17 -5 11
-3 14 6 8 9 -5 12 -2 9 11 -3 15 -11 18 -36 16 -36 -2 -42 15 -17 58 22 38 19
68 -6 72 -35 5 -43 43 -15 70 15 16 27 45 36 91 7 37 11 70 8 72 -2 2 -13 -11
-25 -28z"/>
<path d="M2310 1936 c0 -14 5 -28 10 -31 6 -3 10 2 10 11 0 16 2 15 21 -2 21
-19 21 -19 17 11 -2 24 -8 31 -30 33 -24 3 -28 0 -28 -22z"/>
<path d="M2306 1881 c-4 -5 -1 -13 6 -18 21 -13 288 -4 358 12 l65 15 -80 -7
c-105 -10 -294 -10 -322 0 -12 4 -24 4 -27 -2z"/>
<path d="M1511 2686 c-7 -8 -15 -30 -18 -50 -5 -32 -3 -36 21 -42 15 -3 37 -2
49 4 19 10 18 10 -9 5 -32 -5 -61 16 -35 25 7 2 21 13 29 23 21 24 29 24 37
-2 5 -13 14 -19 28 -17 32 5 32 27 0 38 -15 5 -36 15 -45 20 -24 14 -43 12
-57 -4z"/>
<path d="M1398 2476 c-23 -17 -23 -45 -1 -91 15 -31 21 -36 48 -33 29 3 30 4
27 48 -4 75 -10 90 -35 90 -12 0 -30 -7 -39 -14z m48 -20 c3 -8 4 -31 2 -52
l-3 -39 -22 23 c-30 29 -32 82 -3 82 11 0 23 -6 26 -14z"/>
<path d="M1470 2279 c0 -31 4 -48 10 -44 6 3 10 26 10 51 0 24 -4 44 -10 44
-5 0 -10 -23 -10 -51z"/>
<path d="M1448 2193 c-46 -53 -51 -117 -13 -153 20 -19 27 -21 40 -10 17 14
10 34 -10 26 -28 -10 -35 66 -9 102 21 30 50 28 85 -7 55 -56 30 -137 -47
-151 -31 -5 -35 -9 -21 -15 30 -13 86 20 103 60 13 31 12 39 -1 73 -33 78 -93
114 -127 75z"/>
<path d="M1425 1950 c3 -5 21 -10 40 -10 19 0 37 5 40 10 4 6 -12 10 -40 10
-28 0 -44 -4 -40 -10z"/>
<path d="M1092 1813 c5 -28 105 -72 214 -94 136 -28 404 -23 504 9 71 23 172
82 153 89 -7 3 -26 -5 -42 -16 -64 -46 -229 -81 -376 -81 -160 0 -353 40 -421
86 -31 21 -35 22 -32 7z"/>
<path d="M2475 2980 c3 -5 28 -10 56 -10 27 0 49 5 49 10 0 6 -25 10 -56 10
-34 0 -53 -4 -49 -10z"/>
<path d="M320 2930 l-35 -7 39 -2 39 -1 -5 -112 -6 -113 14 70 c17 93 18 175
2 174 -7 -1 -29 -5 -48 -9z"/>
<path d="M594 2925 c4 -11 16 -55 26 -98 11 -48 26 -86 38 -98 33 -30 49 -22
19 9 -19 19 -31 49 -42 102 -9 41 -23 82 -32 90 -14 13 -15 13 -9 -5z"/>
<path d="M600 2643 c0 -5 4 -13 10 -19 15 -15 67 -173 79 -239 29 -166 43
-352 36 -470 -5 -66 -7 -137 -6 -157 1 -21 -8 -82 -19 -137 -11 -54 -20 -112
-19 -128 l0 -28 10 25 c14 35 36 158 49 272 22 204 4 513 -39 689 -28 110 -63
193 -84 197 -9 2 -17 0 -17 -5z"/>
<path d="M85 2089 c-81 -12 -95 -18 -74 -30 31 -16 42 -156 36 -437 -3 -142
-10 -275 -16 -297 -13 -49 -15 -609 -2 -633 5 -9 12 -46 16 -82 4 -36 9 -68
11 -72 8 -12 73 -282 70 -286 -2 -2 -18 25 -35 60 -30 60 -44 117 -57 221 -7
65 -24 59 -24 -8 0 -116 51 -286 99 -329 34 -31 26 -42 -34 -42 -33 0 -60 -5
-67 -13 -11 -11 -11 -14 0 -18 9 -4 10 -9 2 -18 -8 -10 1 -14 41 -19 60 -8 61
-27 2 -40 -28 -6 -43 -15 -46 -28 -4 -15 -2 -18 11 -12 9 3 96 8 192 10 215 5
280 11 280 29 0 24 -53 37 -210 50 -36 3 -73 8 -83 11 -9 3 -17 1 -17 -4 0 -5
21 -13 48 -16 76 -11 142 -27 142 -36 0 -5 -46 -7 -102 -5 -103 4 -103 4 -102
30 1 23 -2 25 -47 25 -51 0 -79 7 -79 20 0 5 101 8 225 7 168 -2 225 1 225 10
0 18 -8 21 -151 44 -74 12 -144 27 -156 35 -31 19 -79 231 -114 499 -14 108
-18 529 -5 607 6 42 11 48 41 58 38 13 48 28 30 50 -7 8 -18 76 -24 155 -7 77
-17 167 -22 200 -31 185 -38 245 -33 259 4 12 20 16 55 16 42 0 49 3 49 20 0
11 -3 19 -7 19 -5 -1 -35 -5 -68 -10z m90 -1909 c-6 -9 -13 -6 -26 11 -29 38
-24 58 7 27 16 -16 23 -31 19 -38z"/>
<path d="M490 2034 c-15 -38 -12 -42 10 -14 22 28 25 40 10 40 -6 0 -15 -12
-20 -26z"/>
<path d="M390 1782 c0 -26 69 -81 123 -97 75 -23 131 -29 154 -17 11 6 23 29
29 54 l10 43 -119 -3 c-101 -3 -125 0 -158 16 -33 16 -39 17 -39 4z m267 -58
c3 -9 0 -20 -8 -25 -18 -12 -84 -6 -124 12 -30 13 -29 13 35 19 36 4 71 7 78
8 7 1 15 -5 19 -14z"/>
<path d="M148 1614 c-3 -3 -3 -17 1 -32 5 -18 15 -28 32 -31 24 -3 24 -3 5 18
-10 11 -16 27 -13 36 6 14 -13 22 -25 9z"/>
<path d="M333 1467 c6 -17 -41 -31 -70 -20 -11 4 -14 3 -9 -6 5 -8 27 -11 59
-9 29 1 66 -3 82 -9 17 -6 54 -17 83 -23 49 -11 67 -30 42 -45 -5 -3 -10 -16
-10 -28 l0 -21 16 22 c8 12 21 22 29 22 12 0 35 28 35 43 0 4 -73 20 -144 32
-21 4 -57 18 -79 32 -27 17 -38 20 -34 10z"/>
<path d="M150 1452 c0 -18 14 -21 50 -12 31 7 32 8 8 9 -14 1 -33 4 -42 7 -9
3 -16 1 -16 -4z"/>
<path d="M112 1109 c4 -165 10 -255 17 -262 13 -13 343 -16 462 -3 l77 7 6 37
c14 88 15 96 10 77 -4 -11 -11 -26 -18 -34 -6 -8 -10 -22 -8 -31 4 -27 -22
-32 -173 -36 l-140 -3 105 10 c58 5 116 13 130 19 21 8 17 9 -20 5 -25 -2
-129 -7 -232 -11 l-188 -7 -1 222 c-1 121 -3 226 -4 231 -1 6 -3 15 -4 20 0 6
-6 10 -12 10 -9 0 -11 -65 -7 -251z"/>
</g>
</svg>
