<?xml version="1.0" standalone="no"?>
<!DOCTYPE svg PUBLIC "-//W3C//DTD SVG 20010904//EN"
 "http://www.w3.org/TR/2001/REC-SVG-20010904/DTD/svg10.dtd">
<svg version="1.0" xmlns="http://www.w3.org/2000/svg"
 width="300.000000pt" height="300.000000pt" viewBox="0 0 300.000000 300.000000"
 preserveAspectRatio="xMidYMid meet">
<metadata>
Created by potrace 1.10, written by Peter Selinger 2001-2011
</metadata>
<g transform="translate(0.000000,300.000000) scale(0.100000,-0.100000)"
fill="#000000" stroke="none">
<path d="M1319 2582 c-46 -48 -102 -101 -124 -117 -55 -42 -282 -265 -269
-265 5 0 37 27 70 60 32 32 65 59 71 60 7 0 20 11 29 25 9 14 22 25 28 25 7 0
19 11 26 25 7 14 19 25 27 25 7 0 13 4 13 8 0 5 21 23 46 42 25 18 74 60 109
94 55 53 67 61 87 53 14 -5 24 -4 26 2 5 14 42 14 42 1 0 -5 10 -10 21 -10 45
0 99 -23 99 -42 0 -19 15 -24 25 -8 10 16 45 12 52 -6 3 -8 15 -14 27 -13 11
0 24 0 29 -1 4 -1 12 -3 17 -4 9 -1 13 -10 9 -18 -1 -2 -2 -15 -3 -29 -2 -25
0 -26 23 -18 31 12 51 5 51 -18 0 -14 2 -15 9 -4 5 7 14 10 20 7 15 -9 14 7
-1 22 -9 9 -4 12 23 12 44 0 79 -10 79 -22 0 -5 -4 -6 -10 -3 -5 3 -10 1 -10
-4 0 -6 -7 -11 -15 -11 -16 0 -19 -9 -9 -34 5 -13 9 -14 20 -5 8 6 11 15 8 20
-3 5 5 9 16 9 16 0 20 4 16 16 -5 12 -1 14 17 8 12 -4 24 -11 25 -15 2 -5 12
-9 22 -9 10 0 31 -5 47 -12 15 -6 33 -12 38 -14 22 -6 82 -27 110 -39 17 -7
57 -21 90 -31 33 -10 65 -21 70 -25 6 -4 27 -10 48 -14 34 -7 38 -10 33 -31
-5 -19 -2 -24 14 -24 11 0 20 7 20 15 0 19 4 18 59 -1 27 -9 48 -11 53 -6 6 6
-68 35 -189 75 -109 35 -263 87 -343 115 -80 27 -183 61 -230 75 -167 51 -276
86 -358 116 -46 17 -91 31 -101 31 -10 0 -55 -40 -102 -88z m556 -73 c5 -5 -4
-9 -22 -9 -17 0 -36 7 -43 15 -11 13 -8 14 21 9 19 -4 38 -11 44 -15z"/>
<path d="M1580 2450 c0 -11 -7 -20 -15 -20 -8 0 -15 -4 -15 -10 0 -15 19 -12
36 4 16 17 19 46 4 46 -5 0 -10 -9 -10 -20z"/>
<path d="M1720 2435 c0 -8 7 -15 15 -15 8 0 15 -4 15 -10 0 -5 5 -10 11 -10 6
0 9 8 7 18 -2 9 -10 16 -16 15 -7 -2 -12 2 -12 7 0 6 -4 10 -10 10 -5 0 -10
-7 -10 -15z"/>
<path d="M1860 2423 c0 -6 5 -15 10 -18 19 -12 10 -22 -32 -38 -23 -9 -39 -20
-35 -23 4 -4 12 -3 19 3 7 5 26 15 42 21 25 11 28 11 22 -3 -5 -13 -2 -13 19
2 24 18 32 33 17 33 -4 0 -13 -5 -20 -12 -7 -7 -12 -8 -12 -2 0 15 -29 51 -30
37z"/>
<path d="M1683 2413 c-12 -2 -24 -11 -27 -19 -8 -21 18 -17 39 6 10 11 16 19
14 19 -2 -1 -14 -4 -26 -6z"/>
<path d="M2027 2413 c-14 -13 -7 -29 13 -30 22 -2 23 -1 14 21 -7 17 -16 20
-27 9z"/>
<path d="M1577 2373 c-18 -40 -16 -54 5 -31 21 23 37 55 31 62 -12 12 -19 6
-36 -31z"/>
<path d="M1719 2385 c-1 -3 -2 -10 -3 -15 0 -6 -8 -15 -16 -20 -13 -9 -13 -11
-1 -19 12 -8 12 -13 3 -24 -13 -15 -6 -47 10 -47 5 0 6 10 3 21 -4 13 -2 25 5
29 6 4 15 23 20 44 6 28 5 36 -6 36 -8 0 -15 -2 -15 -5z"/>
<path d="M2320 2267 c0 -18 2 -19 10 -7 6 10 10 11 10 3 0 -7 5 -13 11 -13 18
0 5 33 -13 36 -13 1 -18 -4 -18 -19z"/>
<path d="M2630 2188 c-30 -34 -78 -91 -105 -127 -94 -123 -166 -211 -173 -211
-5 0 -25 -23 -47 -51 -45 -60 -177 -208 -405 -456 -91 -98 -180 -196 -199
-217 -26 -29 -38 -36 -55 -31 -11 4 -39 10 -61 14 -22 4 -49 12 -60 18 -11 6
-47 23 -80 38 -33 14 -88 39 -123 56 -34 16 -75 29 -90 29 -26 0 -25 -1 10
-20 21 -11 45 -17 55 -13 10 3 15 2 10 -2 -7 -8 224 -125 248 -125 6 0 21 -11
33 -25 34 -39 112 -31 112 11 0 6 21 34 48 62 26 28 81 87 122 132 41 46 153
161 247 256 95 96 185 192 199 214 15 22 30 40 34 40 4 0 8 -19 8 -42 1 -41
-13 -94 -45 -165 -21 -49 -4 -76 43 -67 23 4 42 1 57 -9 29 -19 39 -13 80 45
18 25 54 74 81 108 27 35 53 79 57 99 4 20 14 61 22 91 8 30 20 89 27 130 7
41 18 103 25 138 7 34 11 62 8 62 -9 0 -52 -105 -44 -108 5 -2 3 -19 -6 -39
-8 -20 -16 -66 -18 -102 -7 -123 -33 -187 -112 -281 -21 -25 -44 -45 -52 -45
-8 0 -21 -19 -29 -43 -21 -65 -36 -38 -17 33 8 33 19 63 25 69 5 5 10 24 10
41 0 36 -31 70 -72 80 -16 4 -28 9 -28 11 0 18 59 97 148 197 59 67 123 146
141 175 22 35 37 49 41 41 6 -8 11 -6 18 8 8 14 8 23 0 31 -20 20 -31 14 -88
-50z m-197 -488 c5 -21 5 -41 -2 -54 -5 -12 -15 -38 -22 -58 -10 -29 -18 -38
-36 -38 -26 0 -27 3 -14 28 6 9 13 31 17 47 l7 30 7 -25 c6 -23 7 -23 12 10 3
19 1 46 -3 58 -5 13 -6 28 -3 33 11 18 28 3 37 -31z"/>
<path d="M1268 2189 c-22 -38 -23 -60 -3 -52 9 3 14 10 12 17 -2 6 5 19 15 30
21 23 23 36 6 36 -7 0 -21 -14 -30 -31z"/>
<path d="M1142 2149 c-13 -27 -16 -39 -7 -36 7 3 18 0 25 -6 10 -10 11 -6 6
15 -3 15 -2 30 4 33 5 3 10 13 10 21 0 26 -18 14 -38 -27z"/>
<path d="M839 2133 c-27 -25 -47 -48 -44 -51 2 -3 14 6 25 19 17 21 21 22 31
9 9 -13 10 -13 5 2 -3 11 6 26 25 43 17 14 25 25 19 25 -6 0 -33 -21 -61 -47z"/>
<path d="M1184 2104 c-4 -16 -13 -38 -19 -49 -7 -11 -16 -33 -19 -50 l-7 -30
25 34 c14 19 26 41 26 48 0 7 6 22 12 33 10 15 10 22 1 31 -9 9 -14 5 -19 -17z"/>
<path d="M1050 2045 c0 -46 12 -58 28 -28 11 18 -4 73 -19 73 -5 0 -9 -20 -9
-45z"/>
<path d="M628 1941 c-75 -69 -161 -156 -192 -192 -30 -36 -72 -80 -93 -96 -36
-30 -37 -32 -23 -59 10 -22 14 -25 17 -12 4 15 11 14 62 -12 32 -17 61 -30 64
-30 2 0 22 -8 43 -17 22 -9 44 -17 49 -17 18 -2 210 -79 225 -91 23 -18 50
-26 50 -14 0 6 17 1 38 -10 20 -12 69 -32 107 -45 39 -14 108 -38 155 -55 95
-35 93 -34 86 -22 -3 5 -18 12 -33 16 -14 3 -38 15 -51 26 -14 10 -37 19 -51
19 -33 0 -70 25 -81 56 -11 27 -47 33 -56 9 -8 -19 -33 -20 -40 -1 -5 14 -89
43 -111 38 -21 -5 -14 15 7 21 11 3 20 10 20 16 0 5 -13 3 -29 -7 -29 -16 -59
-9 -32 7 8 5 9 11 3 15 -6 3 -12 2 -14 -3 -4 -12 -48 -2 -131 29 -32 12 -61
20 -64 17 -3 -3 -22 4 -42 17 -20 13 -54 31 -75 41 -22 11 -34 21 -28 23 6 2
20 -2 32 -8 11 -6 25 -8 30 -5 17 11 0 25 -29 25 -16 0 -34 7 -41 15 -11 13
-10 19 6 34 10 11 37 42 59 70 22 27 45 50 50 49 6 0 24 0 40 1 l30 2 -25 12
c-35 15 -34 15 -21 31 10 12 17 13 31 3 24 -14 37 -3 20 18 -10 12 -8 16 14
25 14 5 26 16 26 24 0 7 20 29 45 47 24 19 43 41 42 49 -1 9 7 16 19 18 12 2
24 13 28 25 3 11 4 22 3 23 -1 1 -63 -55 -139 -125z"/>
<path d="M1420 2051 c0 -19 26 -48 36 -39 7 7 -17 58 -28 58 -4 0 -8 -8 -8
-19z"/>
<path d="M1210 2035 c0 -8 5 -15 10 -15 6 0 8 -11 4 -27 -6 -27 -6 -27 9 -8
22 27 21 38 -3 53 -17 10 -20 10 -20 -3z"/>
<path d="M774 1995 c-7 -13 -9 -26 -7 -29 7 -7 33 20 33 33 0 21 -16 18 -26
-4z"/>
<path d="M1267 1994 c3 -8 1 -14 -4 -14 -5 0 -19 -9 -31 -20 -25 -24 -30 -70
-7 -70 8 0 15 9 15 19 0 11 13 34 30 52 30 33 31 41 5 45 -8 1 -11 -4 -8 -12z"/>
<path d="M1060 1979 c0 -6 -6 -9 -12 -7 -16 6 -48 -34 -48 -58 0 -14 6 -10 23
13 12 18 28 33 35 33 6 0 12 7 12 15 0 8 -2 15 -5 15 -3 0 -5 -5 -5 -11z"/>
<path d="M1083 1945 c-6 -19 -8 -35 -4 -35 13 0 33 52 23 62 -5 5 -13 -7 -19
-27z"/>
<path d="M1131 1887 c-13 -77 -13 -80 -2 -73 5 3 12 27 15 53 4 27 9 56 12 66
3 9 1 17 -4 17 -6 0 -15 -28 -21 -63z"/>
<path d="M1382 1918 c-21 -23 -42 -70 -42 -91 1 -7 9 2 18 19 9 17 25 46 35
63 21 37 18 39 -11 9z"/>
<path d="M697 1863 c-18 -40 -15 -55 8 -32 17 17 31 69 18 69 -5 0 -16 -17
-26 -37z"/>
<path d="M1970 1885 c-7 -8 -10 -21 -7 -29 9 -23 87 -1 87 26 0 5 -7 2 -16 -6
-23 -24 -58 -21 -51 4 6 24 4 25 -13 5z"/>
<path d="M870 1874 c0 -6 5 -15 12 -22 9 -9 8 -17 -2 -37 -18 -33 -7 -42 19
-16 27 27 26 32 -4 61 -14 13 -25 19 -25 14z"/>
<path d="M1000 1858 c0 -7 -9 -24 -20 -38 -11 -14 -20 -40 -20 -59 0 -20 -7
-39 -17 -47 -17 -12 -16 -13 5 -14 20 0 22 5 22 46 0 37 5 50 25 66 26 20 32
42 15 53 -5 3 -10 0 -10 -7z"/>
<path d="M1299 1834 c-10 -28 -7 -40 9 -30 9 5 14 56 6 56 -3 0 -9 -12 -15
-26z"/>
<path d="M1520 1840 c0 -3 5 -12 10 -20 9 -13 11 -13 20 0 15 22 12 29 -10 27
-11 -1 -20 -4 -20 -7z"/>
<path d="M1032 1800 c-16 -27 -15 -30 9 -30 15 0 19 5 15 15 -3 8 -1 15 5 15
6 0 7 5 4 10 -9 15 -19 12 -33 -10z"/>
<path d="M1213 1755 c-20 -25 -41 -45 -46 -45 -16 0 -77 -70 -76 -88 0 -10 3
-12 6 -4 2 6 9 10 14 6 5 -3 8 -1 7 4 -4 13 66 74 70 61 2 -5 -7 -18 -20 -28
-12 -11 -20 -22 -16 -26 3 -4 16 3 27 14 12 12 26 21 31 21 6 0 10 10 10 23 0
13 11 38 25 57 21 28 25 50 10 50 -2 0 -21 -20 -42 -45z"/>
<path d="M1080 1765 c-7 -8 -18 -15 -25 -15 -16 0 -45 -43 -45 -67 0 -12 16
-1 50 36 28 30 50 56 50 58 0 9 -19 1 -30 -12z"/>
<path d="M1464 1741 c-24 -30 -47 -71 -42 -76 2 -2 18 19 37 46 36 53 40 74 5
30z"/>
<path d="M1395 1741 c-4 -8 -2 -16 4 -21 18 -10 -45 -100 -70 -100 -10 0 -19
-3 -18 -7 2 -16 -14 -53 -23 -53 -5 0 -6 5 -3 10 9 15 -7 12 -29 -5 -19 -15
-19 -15 2 -15 23 0 29 -14 12 -25 -13 -8 -3 -25 14 -25 8 0 12 9 9 23 -3 15 8
34 37 65 22 23 44 42 48 42 16 0 41 80 33 102 -6 16 -10 18 -16 9z"/>
<path d="M888 1710 c-13 -23 -14 -30 -4 -30 8 0 16 8 20 18 3 9 9 23 12 30 12
25 -12 11 -28 -18z"/>
<path d="M490 1721 c0 -5 7 -14 16 -22 13 -10 17 -10 24 1 5 8 6 18 4 22 -7
11 -44 10 -44 -1z"/>
<path d="M1634 1719 c-3 -6 1 -18 10 -27 15 -15 16 -14 16 11 0 27 -13 36 -26
16z"/>
<path d="M1611 1653 c-1 -39 -6 -58 -21 -73 -11 -11 -16 -20 -12 -20 14 0 42
35 42 52 0 9 5 18 11 20 7 2 6 15 -4 38 l-15 35 -1 -52z"/>
<path d="M1036 1664 c-10 -25 -7 -30 14 -31 23 -2 27 19 6 36 -11 9 -15 8 -20
-5z"/>
<path d="M778 1630 c33 -31 52 -38 52 -20 0 6 -4 10 -8 10 -5 0 -19 9 -32 20
-37 32 -48 22 -12 -10z"/>
<path d="M1229 1644 c-6 -8 -17 -14 -25 -14 -29 0 -21 -17 8 -18 33 -1 68 13
68 27 0 16 -39 19 -51 5z"/>
<path d="M1671 1626 c-8 -9 -11 -19 -7 -23 3 -3 -4 -11 -16 -17 -25 -13 -38
-39 -14 -30 9 3 16 1 16 -5 0 -6 7 -8 15 -5 8 3 14 9 13 12 -1 4 2 15 6 24 4
9 6 27 4 39 -3 21 -4 21 -17 5z"/>
<path d="M1818 1633 c-15 -4 -55 -53 -43 -53 10 0 75 45 75 53 0 7 -4 7 -32 0z"/>
<path d="M1730 1587 c0 -20 27 -53 36 -44 5 4 3 12 -4 16 -7 4 -10 15 -6 24 4
12 1 17 -10 17 -9 0 -16 -6 -16 -13z"/>
<path d="M761 1566 c-8 -15 -21 -24 -28 -22 -7 3 -15 1 -18 -4 -10 -16 41 -11
55 5 6 8 10 22 8 31 -2 13 -6 11 -17 -10z"/>
<path d="M1506 1538 c-5 -25 -8 -28 -26 -18 -11 6 -20 17 -20 25 0 28 -18 15
-22 -15 -4 -26 -2 -30 21 -31 22 -1 20 -3 -11 -12 -38 -10 -52 -27 -23 -27 8
0 15 -7 15 -15 0 -9 -7 -18 -15 -21 -16 -7 -21 -34 -6 -34 11 0 91 89 91 101
0 4 11 19 25 33 31 31 32 44 1 44 -19 0 -25 -7 -30 -30z"/>
<path d="M323 1538 c3 -13 20 -97 37 -188 34 -185 38 -200 50 -200 4 0 6 8 4
18 -2 9 -6 31 -7 47 -2 17 -9 43 -16 60 -9 21 -9 31 -1 33 8 3 8 8 0 17 -6 8
-18 53 -25 102 -17 107 -24 133 -37 133 -6 0 -8 -10 -5 -22z"/>
<path d="M1686 1531 c-10 -11 -16 -26 -13 -33 2 -7 -5 -23 -16 -35 -23 -26
-18 -39 10 -25 10 5 27 6 37 3 17 -7 16 -10 -12 -30 -18 -12 -32 -28 -32 -35
0 -8 -7 -19 -15 -26 -8 -7 -12 -16 -10 -21 3 -4 24 12 47 37 22 24 47 44 54
44 9 0 14 11 14 30 0 25 -4 30 -24 30 -26 0 -59 29 -35 31 8 1 17 1 22 0 9 -1
9 21 -1 37 -7 9 -13 8 -26 -7z"/>
<path d="M1855 1528 c-11 -17 -18 -20 -23 -11 -7 10 -14 10 -35 0 -31 -14 -44
-44 -28 -60 8 -8 11 -7 11 4 0 17 37 42 50 34 10 -6 21 3 49 38 8 10 9 17 3
17 -6 0 -18 -10 -27 -22z"/>
<path d="M1102 1528 c5 -13 116 -41 134 -34 7 3 10 14 7 27 -6 21 -7 21 -19 4
-9 -12 -19 -15 -31 -10 -10 5 -22 7 -27 6 -5 -1 -22 3 -38 8 -22 8 -28 7 -26
-1z"/>
<path d="M1610 1531 c0 -5 -3 -16 -6 -25 -5 -12 0 -16 20 -16 14 0 26 4 26 10
0 5 -7 7 -15 4 -8 -4 -15 -1 -15 5 0 6 7 11 16 11 8 0 12 5 9 10 -8 13 -35 13
-35 1z"/>
<path d="M1342 1488 c2 -15 11 -24 26 -26 24 -4 30 16 10 36 -20 20 -40 14
-36 -10z"/>
<path d="M1884 1483 l-28 -25 35 7 c43 9 51 17 34 32 -10 10 -19 7 -41 -14z"/>
<path d="M991 1460 c-21 -10 -30 -20 -23 -24 12 -7 66 17 77 34 9 15 -15 10
-54 -10z"/>
<path d="M1818 1469 c-29 -17 -22 -44 12 -46 16 -1 32 2 35 7 4 6 -1 10 -11
10 -11 0 -15 6 -11 20 6 22 0 24 -25 9z"/>
<path d="M2289 1478 c-1 -2 -3 -13 -4 -26 -2 -21 -1 -22 16 -6 18 16 17 34 -2
34 -5 0 -10 -1 -10 -2z"/>
<path d="M592 1445 c3 -14 1 -25 -6 -25 -6 0 -3 -5 6 -11 12 -6 23 -6 36 2 18
11 17 13 -5 35 -30 30 -37 30 -31 -1z"/>
<path d="M1536 1426 c7 -18 -14 -59 -26 -51 -5 3 -11 1 -14 -4 -3 -5 1 -11 9
-15 8 -3 17 -1 20 4 4 6 15 10 25 10 11 0 24 9 30 20 6 11 17 20 25 20 30 0
21 15 -10 17 -25 2 -35 -2 -38 -15 -4 -13 -5 -11 -6 6 0 12 -5 22 -11 22 -5 0
-7 -6 -4 -14z"/>
<path d="M2347 1377 c-25 -29 -54 -69 -65 -89 -11 -20 -27 -44 -36 -55 -8 -10
-48 -61 -88 -113 -40 -52 -76 -99 -80 -105 -5 -5 -38 -48 -74 -95 -108 -141
-157 -202 -206 -255 -26 -28 -63 -77 -82 -110 -20 -32 -36 -55 -36 -51 0 5 -6
4 -13 -2 -21 -17 -40 3 -40 42 0 42 10 57 24 36 8 -11 9 -9 4 10 -7 24 -8 75
-1 114 1 11 -1 38 -5 60 -4 23 -4 61 1 85 9 50 2 151 -11 151 -5 0 -9 -30 -9
-67 0 -38 -1 -86 -2 -108 -1 -22 0 -60 1 -85 4 -61 -6 -150 -19 -165 -6 -7 -8
-20 -4 -29 10 -25 -27 -20 -98 13 -35 16 -85 40 -113 52 -77 34 -109 48 -125
58 -32 19 -171 81 -180 81 -6 0 -10 5 -10 10 0 6 -6 10 -14 10 -8 0 -74 30
-148 68 -131 66 -241 117 -348 163 -30 13 -56 27 -58 31 -2 4 -12 8 -21 8 -22
0 -50 30 -56 60 -3 13 -10 28 -16 34 -16 15 -2 -75 14 -91 7 -7 95 -50 197
-96 102 -46 262 -123 355 -169 94 -47 217 -107 275 -133 58 -26 123 -55 145
-65 131 -59 157 -70 169 -70 7 0 21 -9 31 -20 10 -11 31 -20 46 -20 22 0 36
12 72 64 25 35 96 126 159 203 103 125 176 217 263 328 18 22 74 99 125 170
51 72 104 145 118 163 40 52 8 37 -41 -21z"/>
<path d="M1211 1401 l-24 -18 29 2 c40 3 41 3 48 20 8 21 -23 19 -53 -4z"/>
<path d="M1590 1369 c-94 -49 -129 -72 -133 -91 -4 -14 -15 -18 -46 -18 -23 0
-49 4 -59 9 -39 21 -132 36 -132 22 0 -16 141 -54 165 -45 10 4 15 0 15 -10 0
-20 33 -21 49 -2 7 8 22 13 34 12 14 -2 30 6 41 22 l19 25 -26 -7 c-15 -3 -27
-3 -27 2 0 15 24 32 45 32 11 0 33 11 49 25 16 13 37 27 47 30 11 4 19 11 19
16 0 5 -1 9 -2 8 -2 -1 -28 -14 -58 -30z"/>
<path d="M664 1361 c17 -17 33 -31 38 -31 16 0 -16 39 -41 50 -26 12 -26 11 3
-19z"/>
<path d="M1090 1372 c0 -5 18 -18 39 -29 33 -18 42 -19 51 -8 13 16 -5 31 -32
27 -9 -2 -19 2 -23 8 -7 12 -35 14 -35 2z"/>
<path d="M1275 1370 c-4 -6 -14 -8 -24 -5 -20 6 -67 -50 -51 -60 16 -10 30 4
30 31 0 21 4 23 23 19 15 -4 28 -1 36 9 8 10 9 16 3 16 -6 0 -14 -5 -17 -10z"/>
<path d="M1407 1311 c-21 -22 -25 -30 -14 -34 14 -5 67 40 67 56 0 16 -27 5
-53 -22z"/>
<path d="M1658 1284 c5 -26 -57 -71 -70 -51 -5 8 -8 6 -8 -7 0 -14 5 -17 23
-11 12 4 35 9 50 12 18 4 32 14 38 30 5 13 12 22 16 20 5 -3 14 1 21 9 10 11
8 14 -10 18 -47 9 -65 3 -60 -20z"/>
<path d="M1954 1205 c-22 -34 -14 -47 16 -23 16 14 21 22 12 25 -6 3 -10 9 -6
14 13 21 -7 7 -22 -16z"/>
<path d="M2118 1214 c-5 -4 -8 -21 -8 -38 1 -26 2 -28 11 -13 11 19 8 63 -3
51z"/>
<path d="M1635 1200 c-3 -5 -12 -7 -20 -4 -7 3 -18 -4 -25 -15 -6 -12 -7 -21
-2 -21 17 0 72 31 72 41 0 12 -17 12 -25 -1z"/>
<path d="M476 1128 c-25 -39 -23 -50 6 -52 32 -2 41 14 28 49 -12 31 -16 31
-34 3z"/>
<path d="M1803 1110 c-34 -14 -28 -32 10 -28 19 2 32 8 32 17 0 18 -14 22 -42
11z"/>
<path d="M912 1067 c18 -18 48 -28 48 -17 0 10 -33 30 -50 30 -8 0 -7 -4 2
-13z"/>
</g>
</svg>
