<?xml version="1.0" standalone="no"?>
<!DOCTYPE svg PUBLIC "-//W3C//DTD SVG 20010904//EN"
 "http://www.w3.org/TR/2001/REC-SVG-20010904/DTD/svg10.dtd">
<svg version="1.0" xmlns="http://www.w3.org/2000/svg"
 width="300.000000pt" height="300.000000pt" viewBox="0 0 300.000000 300.000000"
 preserveAspectRatio="xMidYMid meet">
<metadata>
Created by potrace 1.10, written by Peter Selinger 2001-2011
</metadata>
<g transform="translate(0.000000,300.000000) scale(0.100000,-0.100000)"
fill="#000000" stroke="none">
<path d="M148 2942 c-3 -32 -3 -117 -1 -189 l6 -131 -44 -6 c-24 -3 -55 -7
-69 -8 -22 -3 -26 -9 -32 -58 -11 -78 1 -201 21 -224 9 -10 28 -24 42 -32 l26
-13 -2 -853 -3 -853 -46 -3 -46 -3 0 -143 c0 -114 3 -145 14 -149 8 -3 17 -3
20 0 3 4 6 55 6 114 0 59 5 120 10 135 9 23 15 26 40 21 27 -6 30 -4 34 26 3
18 7 403 10 857 3 454 5 826 5 828 1 1 28 2 62 2 l60 0 -6 -855 c-3 -470 -8
-861 -11 -870 -5 -12 -24 -15 -88 -16 -53 0 -74 -3 -61 -9 12 -4 661 -7 1443
-7 l1423 1 5 23 c4 13 3 31 -1 40 -6 15 -9 14 -17 -9 -9 -26 -11 -27 -104 -30
-53 -2 -98 -1 -100 1 -7 8 -3 771 6 956 34 752 34 756 19 766 -8 5 -18 10 -24
12 -6 3 -5 17 4 38 8 19 16 55 18 81 6 58 -20 91 -70 86 -25 -2 -42 -16 -82
-66 l-50 -63 -13 32 c-8 18 -12 46 -9 62 4 28 3 28 -15 9 -53 -53 50 -167 164
-181 l53 -6 0 -257 0 -257 -45 -7 c-25 -4 -343 -5 -707 -2 -626 6 -1708 0
-1699 -9 2 -2 547 -6 1211 -7 1057 -4 1209 -6 1222 -19 9 -8 12 -20 8 -27 -10
-17 -13 -102 -17 -512 -2 -197 -6 -358 -10 -358 -5 0 -8 -45 -8 -100 l0 -100
-640 0 -639 0 -3 225 c-2 124 0 225 4 225 9 0 28 58 28 86 0 34 -35 20 -46
-19 -5 -18 -8 -148 -6 -289 l3 -257 665 2 c437 1 664 -1 664 -8 -1 -36 18 -36
-1244 -40 l-1226 -5 4 23 c3 12 8 407 11 877 l5 855 45 37 45 36 29 -29 c26
-25 37 -29 88 -29 46 0 72 7 130 36 47 23 74 43 79 57 4 12 34 69 67 127 33
58 62 108 64 113 2 4 0 7 -6 7 -8 0 -79 -106 -138 -208 -45 -78 -103 -112
-191 -112 -60 0 -82 11 -82 42 0 16 11 18 115 18 63 0 115 4 115 9 0 16 -78
23 -158 16 l-75 -7 7 44 c3 23 13 80 22 126 15 75 14 105 -2 90 -3 -4 -14 -57
-25 -120 -10 -62 -21 -119 -24 -126 -3 -9 -15 -7 -46 10 -23 13 -53 29 -66 36
-30 17 -84 9 -105 -16 -19 -21 -32 -98 -18 -107 5 -3 10 -18 10 -33 l0 -27
-19 30 c-10 17 -35 46 -55 64 -20 19 -36 41 -36 48 0 7 -7 13 -15 13 -9 0 -18
7 -22 16 -4 10 21 42 74 97 44 45 82 88 85 96 6 21 184 28 858 34 570 5 1795
-13 1836 -27 31 -11 35 8 41 197 5 148 4 167 -10 167 -10 0 -17 -11 -19 -32
l-3 -33 -270 4 c-148 2 -313 6 -365 10 -217 16 -1017 19 -1624 7 -326 -7 -387
-6 -381 5 5 8 -1 6 -12 -3 -28 -25 -40 -22 -52 12 -5 17 -12 30 -14 30 -2 0
-7 -26 -9 -58z m2012 -22 c195 -6 437 -10 538 -10 l182 0 0 -114 c0 -105 -2
-115 -20 -121 -11 -3 -372 -1 -802 6 -677 10 -1252 8 -1750 -6 l-126 -4 -6 57
c-3 31 -7 86 -8 122 l-3 65 350 7 c193 4 395 9 450 11 134 5 756 -2 1195 -13z
m571 -480 c21 -12 26 -70 9 -114 -19 -50 -81 -58 -130 -18 l-23 19 21 34 c30
49 70 89 88 89 8 0 24 -5 35 -10z m-2452 -21 c17 -6 36 -20 42 -31 6 -11 17
-17 25 -14 34 13 9 -22 -40 -56 -61 -43 -96 -48 -126 -18 -23 23 -24 35 -9 79
16 46 52 59 108 40z"/>
<path d="M885 2870 c88 -4 284 -10 435 -13 214 -4 236 -3 100 3 -96 4 -292 10
-435 13 -191 3 -218 3 -100 -3z"/>
<path d="M228 2764 c-33 -17 -35 -29 -10 -43 15 -8 23 -4 40 19 12 16 22 32
22 35 0 9 -24 5 -52 -11z"/>
<path d="M270 2992 c0 -4 17 -6 38 -4 64 6 69 10 15 11 -29 0 -53 -3 -53 -7z"/>
<path d="M1833 2600 c4 -30 9 -89 13 -131 l6 -76 -56 -32 -57 -33 -44 41 c-29
27 -54 41 -72 42 -16 0 -37 4 -48 8 -26 10 -73 -12 -102 -49 l-23 -28 50 -45
c54 -49 91 -61 141 -47 30 9 52 21 157 91 23 16 45 29 48 29 8 0 -38 -79 -53
-91 -8 -7 -18 -7 -32 1 -15 7 -21 7 -21 0 0 -6 11 -15 25 -22 32 -14 47 -2 81
68 14 30 32 54 40 54 7 0 42 -29 76 -65 61 -62 66 -65 111 -65 55 0 119 30
185 86 26 23 42 31 43 23 2 -24 17 35 18 70 1 38 -48 107 -119 166 -62 52 -61
35 2 -27 88 -89 111 -160 59 -187 -20 -11 -191 8 -191 21 0 18 -38 6 -72 -22
l-36 -30 -28 37 c-16 21 -34 53 -41 73 l-11 35 5 -40 c3 -28 0 -45 -9 -52 -11
-9 -13 8 -13 102 0 99 -3 117 -19 132 -18 18 -18 17 -13 -37z m-170 -238 c55
-40 54 -61 -4 -86 -56 -23 -86 -17 -134 25 -41 36 -44 60 -12 83 33 24 100 15
150 -22z m392 -4 c-5 -39 -4 -40 6 -15 12 31 15 31 108 16 l69 -12 -32 -26
c-17 -15 -50 -35 -73 -45 -50 -22 -94 -11 -137 33 l-27 28 38 32 c20 17 41 31
45 31 5 0 6 -19 3 -42z"/>
<path d="M1479 2635 c-1 -6 -1 -18 0 -27 4 -32 -19 -172 -29 -182 -6 -6 -10
-18 -10 -27 0 -20 -145 -129 -172 -129 -43 0 -116 45 -118 72 0 11 70 28 116
28 32 0 45 -5 57 -22 16 -23 16 -23 16 -2 1 11 -8 29 -19 39 -17 16 -26 16
-85 5 -35 -7 -81 -9 -100 -6 -22 4 -35 3 -35 -4 0 -5 4 -10 10 -10 5 0 16 -15
23 -32 17 -40 41 -62 86 -77 54 -18 75 -13 127 28 27 21 59 41 71 45 36 11 64
87 73 196 5 56 5 99 -1 105 -6 5 -9 5 -10 0z"/>
<path d="M1170 2595 c-6 -19 -34 -70 -62 -112 -28 -43 -54 -89 -58 -103 -8
-33 -110 -89 -163 -90 -51 0 -160 54 -155 78 5 25 68 43 112 31 34 -10 47 -31
26 -44 -5 -3 -10 -11 -10 -18 0 -8 3 -8 12 1 7 7 20 12 30 12 19 0 22 8 12 35
-9 21 -68 45 -114 45 -64 0 -129 -70 -82 -87 9 -4 44 -24 78 -45 34 -21 72
-38 84 -38 13 0 54 14 92 32 l69 31 33 -32 c23 -23 41 -32 57 -29 23 3 22 4
-9 21 -56 30 -60 56 -22 129 95 184 109 218 91 218 -5 0 -15 -16 -21 -35z"/>
<path d="M2435 2595 c11 -65 35 -145 44 -145 8 0 -33 168 -44 179 -4 3 -4 -12
0 -34z"/>
<path d="M2880 2615 c-10 -12 -5 -22 23 -57 51 -64 57 -80 57 -157 0 -68 -1
-71 -30 -86 -16 -8 -50 -15 -75 -15 -42 0 -46 2 -43 23 3 19 10 22 48 25 111
6 119 32 9 32 l-69 0 0 -50 0 -50 73 0 c100 0 103 5 110 148 7 126 2 147 -47
180 -38 26 -40 26 -56 7z"/>
<path d="M72 2418 c5 -15 37 -18 41 -3 1 6 -9 12 -22 13 -16 3 -22 -1 -19 -10z"/>
<path d="M2363 2413 c-13 -2 -23 -9 -23 -15 0 -5 7 -7 16 -4 9 3 40 6 70 6 34
0 53 4 49 10 -6 10 -68 11 -112 3z"/>
<path d="M2270 2326 c0 -26 60 -59 116 -64 46 -4 57 -1 84 22 36 30 32 33 -12
10 -42 -22 -111 -12 -155 22 -24 18 -33 21 -33 10z"/>
<path d="M2917 2250 c-4 -8 -8 -388 -10 -845 l-4 -830 -56 3 c-37 3 -57 0 -57
-7 0 -7 26 -11 70 -11 39 0 70 3 70 8 0 4 2 365 5 802 5 718 1 925 -18 880z"/>
<path d="M512 1663 l-154 -4 4 -537 3 -537 458 -3 c362 -2 457 0 457 10 0 10
-46 12 -212 10 l-211 -4 6 109 c10 151 15 157 137 161 118 4 196 -11 203 -39
3 -11 3 -62 0 -114 -4 -62 -2 -95 4 -95 15 0 23 50 23 135 0 91 -15 114 -86
126 -70 11 -218 11 -249 -1 -40 -15 -55 -64 -55 -181 l0 -102 -222 7 c-122 3
-224 9 -227 12 -3 3 -6 234 -6 512 l0 507 465 0 465 0 -2 -265 c-1 -146 -2
-308 -2 -360 l-1 -95 -122 3 c-68 2 -148 -1 -178 -6 -45 -8 -22 -10 122 -11
l177 -1 3 -169 c3 -144 9 -200 21 -180 1 2 1 252 -1 555 l-2 551 -68 6 c-64 7
-420 6 -750 0z"/>
<path d="M1410 1415 c0 -189 3 -245 13 -245 9 0 12 54 13 233 l2 232 280 3
280 2 -6 -22 c-5 -21 -4 -22 13 -8 14 12 60 16 228 19 209 3 210 3 227 -20
l18 -22 6 21 c7 20 14 22 93 22 l86 0 -7 -162 c-3 -90 -9 -206 -13 -258 -3
-52 -2 -92 3 -87 4 4 11 53 15 110 4 56 12 169 19 250 6 82 9 152 5 155 -7 8
-575 20 -997 21 l-278 1 0 -245z"/>
<path d="M1689 1580 c-1 -117 -12 -150 -65 -197 -27 -24 -66 -53 -86 -65 -20
-12 -39 -27 -42 -35 -6 -14 18 1 131 85 40 30 74 63 77 76 11 43 9 167 -3 179
-8 8 -11 -3 -12 -43z"/>
<path d="M1784 1598 c-16 -7 -23 -23 -28 -58 -13 -101 -17 -180 -8 -180 5 0
12 46 14 101 4 96 5 103 31 125 30 25 26 30 -9 12z"/>
<path d="M625 1533 c-31 -36 -68 -85 -82 -107 -54 -88 -98 -148 -115 -157 -13
-7 -18 -21 -17 -52 l1 -42 10 30 c6 17 25 46 42 66 17 20 49 66 71 103 22 37
66 101 98 143 31 42 57 77 57 79 0 11 -14 -2 -65 -63z"/>
<path d="M1995 1270 c-3 -5 -1 -19 5 -30 12 -23 22 -26 19 -7 -3 28 2 36 29
40 22 3 20 4 -10 6 -20 0 -40 -3 -43 -9z"/>
<path d="M580 1232 c0 -21 90 -80 143 -94 71 -18 389 -18 480 1 61 12 106 35
93 48 -3 3 -33 -5 -68 -18 -53 -18 -90 -23 -225 -27 -225 -6 -329 15 -400 81
-13 11 -23 15 -23 9z"/>
<path d="M2582 957 c-12 -14 -34 -67 -28 -67 8 0 48 71 44 76 -3 2 -10 -1 -16
-9z"/>
<path d="M660 869 c-25 -4 -84 -8 -131 -8 -60 -1 -91 -5 -105 -16 -18 -15 -18
-15 6 -11 14 3 79 8 144 11 66 3 123 8 128 11 5 3 35 5 68 5 33 0 62 4 65 10
7 11 -109 10 -175 -2z"/>
<path d="M2499 793 c-18 -32 -45 -77 -61 -101 -16 -23 -28 -48 -26 -54 6 -16
74 94 115 185 20 45 6 30 -28 -30z"/>
<path d="M545 787 c-27 -28 -41 -47 -30 -43 57 23 72 13 41 -29 -12 -17 -17
-18 -41 -7 -31 14 -30 15 -39 -15 -7 -21 -4 -23 26 -25 18 0 39 -1 46 -1 6 1
12 -4 13 -11 2 -20 21 58 28 119 4 33 7 61 7 61 -1 1 -23 -22 -51 -49z"/>
<path d="M2980 366 c0 -91 4 -146 10 -146 6 0 10 53 10 139 0 83 -4 142 -10
146 -6 4 -10 -45 -10 -139z"/>
<path d="M137 343 c18 -2 50 -2 70 0 21 2 7 4 -32 4 -38 0 -55 -2 -38 -4z"/>
<path d="M2523 343 c20 -2 54 -2 75 0 20 2 3 4 -38 4 -41 0 -58 -2 -37 -4z"/>
<path d="M2803 323 c32 -2 81 -2 110 0 29 2 3 3 -58 3 -60 0 -84 -1 -52 -3z"/>
<path d="M2535 313 c-22 -2 -146 -8 -275 -12 l-235 -9 290 4 c160 2 319 8 355
12 l65 9 -80 0 c-44 0 -98 -2 -120 -4z"/>
<path d="M197 243 c79 -2 207 -2 285 0 79 1 15 3 -142 3 -157 0 -221 -2 -143
-3z"/>
<path d="M1418 243 c57 -2 147 -2 200 0 53 1 7 3 -103 3 -110 0 -154 -2 -97
-3z"/>
<path d="M0 48 c0 -14 105 -16 895 -23 1144 -9 2105 1 2105 22 0 14 -61 14
-512 7 -651 -11 -1107 -11 -1875 0 -545 8 -613 7 -613 -6z"/>
</g>
</svg>
